<?xml version="1.0" encoding="utf-8"?>
<!-- Generated by IcoMoon.io -->
<!DOCTYPE svg PUBLIC "-//W3C//DTD SVG 1.1//EN" "http://www.w3.org/Graphics/SVG/1.1/DTD/svg11.dtd">
<svg version="1.1" xmlns="http://www.w3.org/2000/svg" xmlns:xlink="http://www.w3.org/1999/xlink" width="576" height="512" viewBox="0 0 576 512"><g id="icomoon-ignore">
</g>
<path d="M112 64h-96c-8.8 0-16 7.2-16 16v352c0 8.8 7.2 16 16 16h96c8.8 0 16-7.2 16-16v-352c0-8.8-7.2-16-16-16zM96 160h-64v-32h64v32z"></path>
<path d="M272 64h-96c-8.8 0-16 7.2-16 16v352c0 8.8 7.2 16 16 16h96c8.8 0 16-7.2 16-16v-352c0-8.8-7.2-16-16-16zM256 160h-64v-32h64v32z"></path>
<path d="M382.544 88.74l-85.732 43.197c-7.858 3.959-11.048 13.629-7.089 21.488l143.989 285.774c3.959 7.859 13.629 11.049 21.488 7.089l85.732-43.196c7.858-3.96 11.048-13.63 7.089-21.487l-143.989-285.775c-3.96-7.859-13.63-11.050-21.488-7.090z"></path>
<path d="M464 432c0 8.837-7.163 16-16 16s-16-7.163-16-16c0-8.837 7.163-16 16-16s16 7.163 16 16z"></path>
</svg>
